# xmcd
#
# Track frame offsets:
#	150
#	18187
#	36749
#	52986
#	70498
#	85310
#	106122
#	123259
#	140621
#	154308
#	170320
#	186032
#	202194
#	216781
#	233318
#	252705
#	266542
#	282179
#	301041
#
# Disc length: 4219 seconds
#
# Revision: 2
# Processed by: cddbd v1.5.2PL0 Copyright (c) Steve Scherf et al.
# Submitted via: audiograbber 1.83.01
#
DISCID=0e107913
DTITLE=Various Artist - Promo Only Country Radio July 2007
DYEAR=2007
DGENRE=Country
TTITLE0=Keith Urban - I Told You So
TTITLE1=Tim McGraw - I Need You Ft Faith Hill
TTITLE2=Gretchen Wilson - One Of The Boys
TTITLE3=Travis TRitt - You Never Take Me Dancing
TTITLE4=Steve Holy - Men But The Drinks (Girls Call The Shots)
TTITLE5=Keith Anderson - Sunday Morning In America
TTITLE6=Leann Rimes - Nothin' Better To Do
TTITLE7=Sugarland - Everyday America
TTITLE8=Mark Wills - Days Of Thunder
TTITLE9=Martina Mcbride - How I Feel
TTITLE10=Whiskey Falls - Last Train Running
TTITLE11=Sarah Johns - The One In The Middle
TTITLE12=Jack Ingram - Measure Of A Man
TTITLE13=Cowboy Crush - Some Men
TTITLE14=Drew Kennedy - Take Me Home
TTITLE15=Brandi Valentine - Burnin' Bridges
TTITLE16=Aaron Russell - Silent Movie
TTITLE17=Travis Rush - Just For Tonight
TTITLE18=Levi - Crystal Ball
EXTD=
EXTT0=
EXTT1=
EXTT2=
EXTT3=
EXTT4=
EXTT5=
EXTT6=
EXTT7=
EXTT8=
EXTT9=
EXTT10=
EXTT11=
EXTT12=
EXTT13=
EXTT14=
EXTT15=
EXTT16=
EXTT17=
EXTT18=
PLAYORDER=
